<svg id="svg" version="1.1" xmlns="http://www.w3.org/2000/svg" xmlns:xlink="http://www.w3.org/1999/xlink" width="400" height="116.02564102564102" viewBox="0, 0, 400,116.02564102564102"><g id="svgg"><path id="path0" d="M63.055 40.946 C 62.919 83.230,63.018 81.301,60.759 86.058 C 58.403 91.021,55.146 93.155,48.696 93.960 C 36.010 95.543,28.280 87.886,27.652 73.117 L 27.470 68.830 25.514 69.008 C 24.438 69.107,18.762 69.590,12.901 70.083 L 2.244 70.978 2.245 73.871 C 2.261 100.361,21.834 117.026,50.616 115.056 C 69.545 113.760,82.112 106.106,86.874 92.972 C 89.391 86.032,89.224 89.360,89.339 43.670 L 89.442 2.885 76.309 2.885 L 63.177 2.885 63.055 40.946 M124.487 4.087 C 124.603 4.748,130.292 29.447,137.129 58.974 L 149.561 112.660 165.806 112.743 C 174.741 112.789,182.055 112.789,182.058 112.743 C 182.159 111.582,196.434 36.152,196.581 36.005 C 196.928 35.658,196.723 34.642,203.823 71.955 C 207.579 91.699,210.873 108.970,211.141 110.337 L 211.630 112.821 227.691 112.821 L 243.753 112.821 256.359 58.574 C 263.292 28.738,269.040 4.002,269.133 3.606 L 269.300 2.885 255.826 2.885 C 243.271 2.885,242.339 2.923,242.181 3.446 C 242.088 3.754,238.534 21.673,234.283 43.266 C 230.033 64.859,226.491 82.590,226.413 82.668 C 225.978 83.103,225.147 78.921,218.611 43.429 C 214.682 22.099,211.394 4.251,211.303 3.766 L 211.138 2.885 196.514 2.885 L 181.891 2.886 174.523 42.789 C 170.426 64.976,167.009 82.692,166.826 82.692 C 166.646 82.692,162.967 64.736,158.650 42.789 L 150.801 2.886 137.539 2.885 L 124.277 2.885 124.487 4.087 M305.769 57.853 L 305.769 112.821 318.750 112.821 L 331.731 112.821 331.731 94.093 L 331.731 75.365 349.119 75.228 C 363.509 75.116,366.957 75.002,369.120 74.570 C 388.935 70.609,399.269 57.692,398.625 37.693 C 398.040 19.547,388.169 7.805,370.454 4.183 C 365.125 3.094,359.099 2.891,331.971 2.888 L 305.769 2.885 305.769 57.853 M361.286 24.252 C 372.624 27.703,375.983 42.783,367.214 50.866 C 363.178 54.586,361.441 54.918,345.272 55.056 L 331.731 55.172 331.731 39.263 L 331.731 23.354 345.433 23.476 C 358.113 23.589,359.295 23.646,361.286 24.252 M267.308 100.000 L 267.308 112.821 280.929 112.821 L 294.551 112.821 294.551 100.000 L 294.551 87.179 280.929 87.179 L 267.308 87.179 267.308 100.000 " stroke="none" fill="#000000" fill-rule="evenodd"></path></g></svg>